#tb 0: 1/25
#media_type 0: video
#codec_id 0: rawvideo
#dimensions 0: 352x432
#sar 0: 0/1
0,          3,          3,        1,   152064, 0xceb080b0
0,          4,          4,        1,   152064, 0x473db652
0,          5,          5,        1,   152064, 0x287da8e6
0,          6,          6,        1,   152064, 0x68b47c23
0,          7,          7,        1,   152064, 0xe9028bac
0,          8,          8,        1,   152064, 0x28ff8026
0,          9,          9,        1,   152064, 0x2d7c3915
